<svg id="Layer_1" height="70" viewBox="0 0 512 512" width="70" xmlns="http://www.w3.org/2000/svg" data-name="Layer 1"><path d="m501 153.92v255.2a40.832 40.832 0 0 1 -40.83 40.84h-408.34a40.832 40.832 0 0 1 -40.83-40.84v-255.2a40.838 40.838 0 0 1 40.83-40.84h81.67a51.042 51.042 0 0 1 51.04-51.04h142.92a51.038 51.038 0 0 1 51.04 51.04h81.67a40.838 40.838 0 0 1 40.83 40.84z" fill="#e97187"/><path d="m397.08 156.06h61.25v30.62h-61.25z" fill="#55d8d8"/><path d="m68.78 156.51a15.315 15.315 0 1 1 -15.31 15.32 15.319 15.319 0 0 1 15.31-15.32z" fill="#6d7486"/><path d="m256 159.02a127.605 127.605 0 1 1 -127.6 127.6 127.6 127.6 0 0 1 127.6-127.6z" fill="#db5d69"/><path d="m256 215.17a71.455 71.455 0 1 1 -71.46 71.45 71.453 71.453 0 0 1 71.46-71.45z" fill="#5fa8ed"/><path d="m179.45 76.99a50.843 50.843 0 0 1 36.09-14.95h-31a51.042 51.042 0 0 0 -51.04 51.04h31a50.843 50.843 0 0 1 14.95-36.09z" fill="#c65870"/><path d="m42 409.12v-255.2a40.838 40.838 0 0 1 40.83-40.84h-31a40.838 40.838 0 0 0 -40.83 40.84v255.2a40.832 40.832 0 0 0 40.83 40.84h31a40.832 40.832 0 0 1 -40.83-40.84z" fill="#c65870"/><path d="m215.54 286.62a71.462 71.462 0 0 1 55.96-69.745 71.455 71.455 0 1 0 0 139.5 71.466 71.466 0 0 1 -55.96-69.755z" fill="#8acaff"/><g fill="#284268"><path d="m333.458 286.625a77.458 77.458 0 1 0 -77.458 77.458 77.545 77.545 0 0 0 77.458-77.458zm-142.916 0a65.458 65.458 0 1 1 65.458 65.458 65.532 65.532 0 0 1 -65.458-65.458z"/><path d="m259.719 153.072a133.235 133.235 0 0 0 -100.786 41.853 5.995 5.995 0 1 0 8.72 8.228 121.549 121.549 0 0 1 209.858 88.277c-2.444 63.113-53.592 114.261-116.7 116.706a121.577 121.577 0 0 1 -114.763-173.41 6.014 6.014 0 0 0 -2.286-7.745h-.008a6 6 0 0 0 -8.527 2.562 132.9 132.9 0 0 0 -12.766 61.186c2.131 70.741 59.85 127.947 130.606 129.473 76.017 1.64 138.194-60.566 136.508-136.591-1.575-70.875-58.995-128.603-129.856-130.539z"/><path d="m460.167 107.083h-75.98a57.122 57.122 0 0 0 -56.729-51.041h-142.916a57.122 57.122 0 0 0 -56.729 51.041h-75.98a46.887 46.887 0 0 0 -46.833 46.834v255.208a46.886 46.886 0 0 0 46.833 46.833h408.334a46.886 46.886 0 0 0 46.833-46.833v-255.208a46.887 46.887 0 0 0 -46.833-46.834zm34.833 302.042a34.872 34.872 0 0 1 -34.833 34.833h-408.334a34.872 34.872 0 0 1 -34.833-34.833v-255.208a34.873 34.873 0 0 1 34.833-34.834h81.667a6 6 0 0 0 6-6 45.092 45.092 0 0 1 45.042-45.041h142.916a45.092 45.092 0 0 1 45.042 45.041 6 6 0 0 0 6 6h81.667a34.873 34.873 0 0 1 34.833 34.834z"/><path d="m458.335 150.057h-61.25a6 6 0 0 0 -6 6v30.625a6 6 0 0 0 6 6h61.25a6 6 0 0 0 6-6v-30.625a6 6 0 0 0 -6-6zm-6 30.625h-49.25v-18.625h49.25z"/><path d="m68.777 150.515a21.313 21.313 0 1 0 21.313 21.313 21.336 21.336 0 0 0 -21.313-21.313zm0 30.625a9.313 9.313 0 1 1 9.313-9.312 9.323 9.323 0 0 1 -9.313 9.312z"/><path d="m46.112 277.323a6 6 0 0 0 -6 6v12.264a6 6 0 0 0 12 0v-12.264a6 6 0 0 0 -6-6z"/><path d="m46.112 310.187a6 6 0 0 0 -6 6v80.913a6 6 0 0 0 12 0v-80.91a6 6 0 0 0 -6-6.003z"/></g></svg>